<svg width="120" height="120" viewBox="0 0 120 120" fill="none" xmlns="http://www.w3.org/2000/svg">
<rect x="56" y="29" width="44" height="62" fill="black"/>
<path d="M37.016 46.288C41.2827 46.288 44.7387 47.5893 47.384 50.192C50.0293 52.752 51.352 56.464 51.352 61.328V82H45.592V62.16C45.592 58.6613 44.7173 55.9947 42.968 54.16C41.2187 52.2827 38.8293 51.344 35.8 51.344C32.728 51.344 30.2747 52.304 28.44 54.224C26.648 56.144 25.752 58.9387 25.752 62.608V82H19.928V46.928H25.752V51.92C26.904 50.128 28.4613 48.7413 30.424 47.76C32.4293 46.7787 34.6267 46.288 37.016 46.288Z" fill="black"/>
<path d="M66.6895 53.456C67.8842 51.3653 69.6335 49.6587 71.9375 48.336C74.2415 47.0133 76.8655 46.352 79.8095 46.352C82.9668 46.352 85.8042 47.0987 88.3215 48.592C90.8388 50.0853 92.8228 52.1973 94.2735 54.928C95.7242 57.616 96.4495 60.752 96.4495 64.336C96.4495 67.8773 95.7242 71.0347 94.2735 73.808C92.8228 76.5813 90.8175 78.736 88.2575 80.272C85.7402 81.808 82.9242 82.576 79.8095 82.576C76.7802 82.576 74.1135 81.9147 71.8095 80.592C69.5482 79.2693 67.8415 77.584 66.6895 75.536V82H60.8655V34.64H66.6895V53.456ZM90.4975 64.336C90.4975 61.6907 89.9642 59.3867 88.8975 57.424C87.8308 55.4613 86.3802 53.968 84.5455 52.944C82.7535 51.92 80.7695 51.408 78.5935 51.408C76.4602 51.408 74.4762 51.9413 72.6415 53.008C70.8495 54.032 69.3988 55.5467 68.2895 57.552C67.2228 59.5147 66.6895 61.7973 66.6895 64.4C66.6895 67.0453 67.2228 69.3707 68.2895 71.376C69.3988 73.3387 70.8495 74.8533 72.6415 75.92C74.4762 76.944 76.4602 77.456 78.5935 77.456C80.7695 77.456 82.7535 76.944 84.5455 75.92C86.3802 74.8533 87.8308 73.3387 88.8975 71.376C89.9642 69.3707 90.4975 67.024 90.4975 64.336Z" fill="white"/>
<circle cx="60" cy="60" r="58.5" stroke="black" stroke-width="3"/>
</svg>
